<svg width="1440" height="207" viewBox="0 0 1440 207" fill="none" xmlns="http://www.w3.org/2000/svg">
<g clip-path="url(#clip0_2121_23355)">
<rect width="1440" height="207" fill="#FEFAEF"/>
<path d="M2092.91 1031.11C2085.96 694.076 2071.08 359.167 2128.82 28.6381L1849.24 -189.365C1728.22 -133.094 1604.21 -87.9464 1475.64 -53.4954C1066.11 56.2373 1036.73 -53.3984 773.24 17.2048C68.471 206.047 -21.2159 1141.19 -61.1774 1836.5L103.2 1891.23C129.495 1773.49 191.058 1666.73 318.974 1617.13C590.252 1512.09 772.859 1653.89 1082.69 1635.59C1198.18 1628.49 1321.41 1561.41 1367.64 1537.1" fill="#EFC66E"/>
<mask id="path-2-inside-1_2121_23355" fill="white">
<path d="M1937.01 1050.08C1930.07 713.04 1915.18 378.13 1972.93 47.602L1693.35 -170.401C1572.32 -114.131 1448.32 -68.9825 1319.75 -34.5315C910.218 75.2012 880.841 -34.4345 617.346 36.1687C-87.4232 225.011 -177.11 1160.15 -217.072 1855.46L-52.6941 1910.19C-26.399 1792.45 35.164 1685.7 163.08 1636.1C434.358 1531.05 616.964 1672.86 926.797 1654.55C1042.28 1647.45 1165.51 1580.37 1211.74 1556.06"/>
</mask>
<path d="M1972.93 47.602L1973.91 47.7741L1974.02 47.1826L1973.54 46.8134L1972.93 47.602ZM1693.35 -170.401L1693.96 -171.19L1693.48 -171.566L1692.93 -171.308L1693.35 -170.401ZM-217.072 1855.46L-218.07 1855.41L-218.114 1856.17L-217.387 1856.41L-217.072 1855.46ZM-52.6941 1910.19L-53.01 1911.14L-51.9594 1911.49L-51.7181 1910.41L-52.6941 1910.19ZM163.08 1636.1L162.719 1635.16L162.718 1635.16L163.08 1636.1ZM926.797 1654.55L926.856 1655.55L926.858 1655.55L926.797 1654.55ZM1938.01 1050.06C1931.06 712.978 1916.19 378.184 1973.91 47.7741L1971.94 47.4299C1914.18 378.077 1929.07 713.102 1936.01 1050.1L1938.01 1050.06ZM1973.54 46.8134L1693.96 -171.19L1692.73 -169.613L1972.31 48.3906L1973.54 46.8134ZM1692.93 -171.308C1571.95 -115.062 1448 -69.9333 1319.49 -35.4974L1320 -33.5656C1448.63 -68.0316 1572.69 -113.2 1693.77 -169.494L1692.93 -171.308ZM1319.49 -35.4974C1114.83 19.3391 1005.21 19.3555 913.836 14.4936C822.384 9.62767 749.011 -0.146012 617.087 35.2028L617.605 37.1346C749.176 1.88021 822.239 11.6228 913.73 16.4907C1005.3 21.3627 1115.13 21.3306 1320 -33.5656L1319.49 -35.4974ZM617.087 35.2028C264.242 129.747 65.4514 411.112 -50.1137 755.571C-165.675 1100.02 -198.09 1507.76 -218.07 1855.41L-216.073 1855.52C-196.092 1507.86 -163.683 1100.37 -48.2176 756.207C67.2433 412.058 265.68 131.432 617.605 37.1346L617.087 35.2028ZM-217.387 1856.41L-53.01 1911.14L-52.3782 1909.24L-216.756 1854.52L-217.387 1856.41ZM-51.7181 1910.41C-25.4672 1792.87 35.942 1686.47 163.441 1637.03L162.718 1635.16C34.386 1684.93 -27.3309 1792.04 -53.67 1909.98L-51.7181 1910.41ZM163.441 1637.03C298.832 1584.6 412.091 1593.76 530.314 1613.78C648.525 1633.8 771.793 1664.71 926.856 1655.55L926.738 1653.55C771.968 1662.7 649.017 1631.86 530.648 1611.81C412.29 1591.77 298.606 1582.54 162.719 1635.16L163.441 1637.03ZM926.858 1655.55C1042.6 1648.43 1166.03 1581.23 1212.21 1556.95L1211.28 1555.18C1165 1579.51 1041.97 1646.47 926.735 1653.55L926.858 1655.55Z" fill="#EFC66E" mask="url(#path-2-inside-1_2121_23355)"/>
<mask id="path-4-inside-2_2121_23355" fill="white">
<path d="M2077.67 1012.39C2070.72 675.351 2055.84 340.441 2113.59 9.91295L1834.01 -208.09C1712.98 -151.82 1588.98 -106.672 1460.4 -72.2206C1050.88 37.5121 1021.5 -72.1236 758.004 -1.52035C53.2344 187.322 -36.4525 1122.46 -76.414 1817.77L87.9635 1872.5C114.259 1754.76 175.822 1648.01 303.737 1598.41C575.016 1493.36 757.622 1635.17 1067.45 1616.86C1182.94 1609.76 1306.17 1542.68 1352.4 1518.37"/>
</mask>
<path d="M2113.59 9.91295L2114.57 10.0851L2114.67 9.49357L2114.2 9.12435L2113.59 9.91295ZM1834.01 -208.09L1834.62 -208.879L1834.14 -209.255L1833.58 -208.997L1834.01 -208.09ZM-76.414 1817.77L-77.4123 1817.72L-77.4563 1818.48L-76.7299 1818.72L-76.414 1817.77ZM87.9635 1872.5L87.6476 1873.45L88.6982 1873.8L88.9395 1872.72L87.9635 1872.5ZM303.737 1598.41L303.376 1597.47L303.376 1597.47L303.737 1598.41ZM1067.45 1616.86L1067.51 1617.86L1067.52 1617.86L1067.45 1616.86ZM2078.67 1012.37C2071.72 675.289 2056.85 340.495 2114.57 10.0851L2112.6 9.74085C2054.84 340.388 2069.72 675.413 2076.67 1012.41L2078.67 1012.37ZM2114.2 9.12435L1834.62 -208.879L1833.39 -207.302L2112.97 10.7015L2114.2 9.12435ZM1833.58 -208.997C1712.61 -152.751 1588.66 -107.622 1460.14 -73.1865L1460.66 -71.2546C1589.29 -105.721 1713.35 -150.889 1834.43 -207.183L1833.58 -208.997ZM1460.14 -73.1865C1255.49 -18.35 1145.87 -18.3336 1054.49 -23.1955C963.041 -28.0614 889.668 -37.8351 757.745 -2.48628L758.262 -0.554427C889.834 -35.8088 962.896 -26.0663 1054.39 -21.1983C1145.95 -16.3263 1255.79 -16.3585 1460.66 -71.2546L1460.14 -73.1865ZM757.745 -2.48628C404.9 92.0582 206.109 373.423 90.5439 717.882C-25.017 1062.33 -57.432 1470.07 -77.4123 1817.72L-75.4156 1817.83C-55.4345 1470.17 -23.0253 1062.68 92.44 718.518C207.901 374.369 406.338 93.7434 758.262 -0.554427L757.745 -2.48628ZM-76.7299 1818.72L87.6476 1873.45L88.2794 1871.56L-76.0981 1816.83L-76.7299 1818.72ZM88.9395 1872.72C115.19 1755.18 176.6 1648.78 304.099 1599.34L303.376 1597.47C175.044 1647.24 113.327 1754.35 86.9876 1872.29L88.9395 1872.72ZM304.098 1599.34C439.49 1546.91 552.748 1556.07 670.971 1576.09C789.183 1596.11 912.45 1627.02 1067.51 1617.86L1067.4 1615.86C912.626 1625.01 789.674 1594.17 671.305 1574.12C552.947 1554.08 439.264 1544.85 303.376 1597.47L304.098 1599.34ZM1067.52 1617.86C1183.26 1610.74 1306.68 1543.54 1352.86 1519.26L1351.93 1517.49C1305.66 1541.82 1182.62 1608.78 1067.39 1615.86L1067.52 1617.86Z" fill="#EFC66E" mask="url(#path-4-inside-2_2121_23355)"/>
</g>
<defs>
<clipPath id="clip0_2121_23355">
<rect width="1440" height="207" fill="white"/>
</clipPath>
</defs>
</svg>
